<svg width="38" height="48" viewBox="0 0 38 48" fill="none" xmlns="http://www.w3.org/2000/svg">
<path d="M10.9566 0.912915C7.75665 2.49924 5.06526 4.95049 3.18763 7.98866C1.31001 11.0268 0.321292 14.5304 0.33361 18.1019V26.4034C0.335092 27.6221 0.819858 28.7904 1.68158 29.6521C2.5433 30.5138 3.71162 30.9986 4.93028 31.0001H9.66694V45.0001C9.66694 45.6189 9.91278 46.2124 10.3504 46.65C10.7879 47.0876 11.3814 47.3334 12.0003 47.3334C12.6191 47.3334 13.2126 47.0876 13.6502 46.65C14.0878 46.2124 14.3336 45.6189 14.3336 45.0001V3.00008C14.3333 2.60245 14.2314 2.2115 14.0376 1.86428C13.8438 1.51707 13.5646 1.22509 13.2263 1.01604C12.8881 0.806994 12.5021 0.687796 12.1048 0.669748C11.7076 0.6517 11.3124 0.7354 10.9566 0.912915ZM9.66694 26.3568L5.00028 26.4034V18.1019C4.99327 16.0936 5.4046 14.1059 6.20806 12.2653C7.01151 10.4248 8.18948 8.77174 9.66694 7.41148V26.3568ZM33.0003 3.00008V12.3334C32.9995 12.952 32.7534 13.545 32.316 13.9824C31.8786 14.4199 31.2855 14.6659 30.6669 14.6667V3.00008C30.6669 2.38124 30.4211 1.78775 29.9835 1.35017C29.5459 0.912581 28.9524 0.666748 28.3336 0.666748C27.7148 0.666748 27.1213 0.912581 26.6837 1.35017C26.2461 1.78775 26.0003 2.38124 26.0003 3.00008V14.6667C25.3817 14.6659 24.7887 14.4199 24.3512 13.9824C23.9138 13.545 23.6677 12.952 23.6669 12.3334V3.00008C23.6669 2.38124 23.4211 1.78775 22.9835 1.35017C22.5459 0.912581 21.9524 0.666748 21.3336 0.666748C20.7148 0.666748 20.1213 0.912581 19.6837 1.35017C19.2461 1.78775 19.0003 2.38124 19.0003 3.00008V12.3334C19.0023 14.1893 19.7405 15.9686 21.0528 17.2809C22.3651 18.5932 24.1444 19.3314 26.0003 19.3334V45.0001C26.0003 45.6189 26.2461 46.2124 26.6837 46.65C27.1213 47.0876 27.7148 47.3334 28.3336 47.3334C28.9524 47.3334 29.5459 47.0876 29.9835 46.65C30.4211 46.2124 30.6669 45.6189 30.6669 45.0001V19.3334C32.5228 19.3314 34.3021 18.5932 35.6144 17.2809C36.9268 15.9686 37.6649 14.1893 37.6669 12.3334V3.00008C37.6669 2.38124 37.4211 1.78775 36.9835 1.35017C36.5459 0.912581 35.9524 0.666748 35.3336 0.666748C34.7148 0.666748 34.1213 0.912581 33.6837 1.35017C33.2461 1.78775 33.0003 2.38124 33.0003 3.00008Z" fill="#4D44B5"/>
</svg>
